# xmcd
#
# Track frame offsets:
#	150
#	20060
#	38061
#	58308
#	74034
#	88216
#	112981
#	125526
#	126482
#	127444
#	128366
#	130767
#	133726
#
# Disc length: 1828 seconds
#
# Revision: 0
# Processed by: cddbd v1.5.1PL0 Copyright (c) Steve Scherf et al.
# Submitted via: dBpowerAMP V4.0
#
DISCID=d007220d
DTITLE=Rick Hendrix Company - Volume 26 2004
DYEAR=2004
DGENRE=Gospel
TTITLE0=Misty Freeman - Faith, Hope, and Love
TTITLE1=The Freemans - The Last Train
TTITLE2=Ruppes - Lord It Hurts, But You're Still God
TTITLE3=Debbie Robbins - Where Could I Go
TTITLE4=Martins - Sing Me Home
TTITLE5=Kim Hopper - The Cross Said It All
TTITLE6=Heirline - I Will Stand For Jesus
TTITLE7=Track 06
TTITLE8=Misty Freeman - Radio ID 1
TTITLE9=Misty Freeman - Radio ID 2
TTITLE10=Misty Freeman - Radio ID 3
TTITLE11=Misty Freeman - Interview With Jeff Steele
TTITLE12=Misty Freeman - Interview with Jeff Steele pt. 2
EXTD=
EXTT0=
EXTT1=
EXTT2=
EXTT3=
EXTT4=
EXTT5=
EXTT6=
EXTT7=
EXTT8=
EXTT9=
EXTT10=
EXTT11=
EXTT12=
PLAYORDER=
